<?xml version="1.0" encoding="UTF-8" standalone="no"?>
<svg
   xmlns:dc="http://purl.org/dc/elements/1.1/"
   xmlns:cc="http://creativecommons.org/ns#"
   xmlns:rdf="http://www.w3.org/1999/02/22-rdf-syntax-ns#"
   xmlns:svg="http://www.w3.org/2000/svg"
   xmlns="http://www.w3.org/2000/svg"
   xml:space="preserve"
   viewBox="0.3 0 59 59"
   height="59"
   width="59"
   y="0px"
   x="0px"
   id="Capa_1"
   version="1.1"><metadata
   id="metadata47"><rdf:RDF><cc:Work
       rdf:about=""><dc:format>image/svg+xml</dc:format><dc:type
         rdf:resource="http://purl.org/dc/dcmitype/StillImage" /><dc:title></dc:title></cc:Work></rdf:RDF></metadata><defs
   id="defs45" />
<g
   transform="translate(0.25023729,-0.05599976)"
   id="g10">
	<g
   id="g8">
		<path
   id="path2"
   d="m 26.355,28.33 c 0.58,-1.344 0.18,-2.809 -0.894,-3.273 -0.242,-0.104 -0.497,-0.147 -0.753,-0.135 -0.426,0.019 -0.75,0.696 -1.156,1.09 -0.406,0.395 -0.972,0.429 -1.016,0.5 -0.027,0.043 -0.05,0.087 -0.071,0.135 -0.58,1.344 -0.18,2.81 0.894,3.273 1.075,0.465 2.417,-0.248 2.996,-1.59 z" />
		<path
   id="path4"
   d="m 33.572,24.263 c 0.06,0.186 0.077,0.387 0.043,0.594 -0.12,0.737 -0.815,1.234 -1.552,1.114 -0.052,-0.008 -0.099,-0.026 -0.145,-0.046 -0.078,-0.033 -0.153,0.155 -0.129,0.421 0.015,0.157 0.041,0.316 0.08,0.476 0.355,1.419 1.564,2.339 2.699,2.056 1.137,-0.285 1.768,-1.665 1.413,-3.084 -0.247,-0.989 -0.91,-1.736 -1.674,-2.002 -0.542,-0.188 -0.832,0.153 -0.735,0.471 z" />
		<path
   id="path6"
   d="m 26.978,57.812 c 0.669,0.766 1.594,1.244 2.625,1.244 1.039,0 1.969,-0.485 2.639,-1.261 0.376,-0.436 1.04,-0.917 1.608,-1.009 C 46.981,54.713 57.023,43.351 57.023,29.637 57.023,14.45 44.713,2.141 29.527,2.141 29.1,2.141 28.675,2.154 28.253,2.175 27.678,2.204 26.874,1.924 26.422,1.569 22.062,-1.853 18.94,0.868 16.892,4.545 16.612,5.048 15.998,5.689 15.503,5.983 7.437,10.773 2.032,19.573 2.032,29.636 c 0,13.77 10.124,25.17 23.333,27.177 0.568,0.086 1.235,0.565 1.613,0.999 z M 37.523,34.436 c -3.57,0.585 -7.111,-2.877 -7.91,-7.732 -0.798,-4.857 1.451,-9.27 5.022,-9.855 3.571,-0.586 7.113,2.876 7.911,7.732 0.798,4.856 -1.45,9.268 -5.023,9.855 z M 29.688,7.06 c 1.434,1.397 5.057,4.24 10.984,4.444 0.575,0.02 0.799,0.408 0.432,0.85 -1.189,1.435 -4.089,4.02 -8.44,2.073 -3.97,-1.777 -4.088,-5.351 -3.875,-7.108 0.067,-0.572 0.487,-0.66 0.899,-0.259 z m -0.16,45.021 c 1.367,0 2.476,1.245 2.476,2.781 0,1.536 -1.108,2.78 -2.476,2.78 -1.37,0 -2.478,-1.244 -2.478,-2.78 0,-1.536 1.11,-2.781 2.478,-2.781 z M 26.315,5.159 c -1.948,1.024 -6.566,3.714 -10.139,7.858 -0.376,0.436 -0.57,0.348 -0.428,-0.21 0.87,-3.444 4.192,-14.187 10.727,-8.812 0.443,0.366 0.349,0.896 -0.16,1.164 z m -5.334,12.837 c 3.62,0 6.553,3.991 6.553,8.911 0,4.922 -2.933,8.912 -6.553,8.912 -3.62,0 -6.553,-3.99 -6.553,-8.912 0,-4.92 2.933,-8.911 6.553,-8.911 z" />
	</g>
</g>
<g
   transform="translate(0,-0.05599976)"
   id="g12">
</g>
<g
   transform="translate(0,-0.05599976)"
   id="g14">
</g>
<g
   transform="translate(0,-0.05599976)"
   id="g16">
</g>
<g
   transform="translate(0,-0.05599976)"
   id="g18">
</g>
<g
   transform="translate(0,-0.05599976)"
   id="g20">
</g>
<g
   transform="translate(0,-0.05599976)"
   id="g22">
</g>
<g
   transform="translate(0,-0.05599976)"
   id="g24">
</g>
<g
   transform="translate(0,-0.05599976)"
   id="g26">
</g>
<g
   transform="translate(0,-0.05599976)"
   id="g28">
</g>
<g
   transform="translate(0,-0.05599976)"
   id="g30">
</g>
<g
   transform="translate(0,-0.05599976)"
   id="g32">
</g>
<g
   transform="translate(0,-0.05599976)"
   id="g34">
</g>
<g
   transform="translate(0,-0.05599976)"
   id="g36">
</g>
<g
   transform="translate(0,-0.05599976)"
   id="g38">
</g>
<g
   transform="translate(0,-0.05599976)"
   id="g40">
</g>
</svg>