<?xml version="1.0" encoding="UTF-8" standalone="no"?>
<svg
   xmlns:dc="http://purl.org/dc/elements/1.1/"
   xmlns:cc="http://creativecommons.org/ns#"
   xmlns:rdf="http://www.w3.org/1999/02/22-rdf-syntax-ns#"
   xmlns:svg="http://www.w3.org/2000/svg"
   xmlns="http://www.w3.org/2000/svg"
   height="497"
   width="497"
   xml:space="preserve"
   viewBox="0 0 496.99999 496.99999"
   y="0px"
   x="0px"
   id="Capa_1"
   version="1.1"><metadata
   id="metadata57"><rdf:RDF><cc:Work
       rdf:about=""><dc:format>image/svg+xml</dc:format><dc:type
         rdf:resource="http://purl.org/dc/dcmitype/StillImage" /><dc:title></dc:title></cc:Work></rdf:RDF></metadata><defs
   id="defs55" />
<g
   transform="translate(0,0.05899148)"
   id="g20">
	<g
   id="g18">
		<g
   id="g16">
			<path
   id="path2"
   d="m 475.299,106.918 -12.047,-3.765 c -3.012,-0.753 -6.024,-1.506 -9.788,-1.506 -13.553,0 -25.6,9.035 -30.118,21.835 l -6.776,20.329 V 128.752 128 c 0,-2.259 -1.506,-4.518 -3.012,-6.024 L 290.076,2.259 C 288.57,0.753 286.311,0 284.805,0 H 43.111 C 38.593,0 35.582,3.012 35.582,7.529 V 30.87 H 7.723 c -4.518,0 -7.529,3.012 -7.529,7.529 v 451.012 c 0,4.518 3.012,7.529 7.529,7.529 h 365.929 c 4.518,0 7.529,-3.012 7.529,-7.529 V 466.07 h 27.859 c 4.518,0 7.529,-3.012 7.529,-7.529 V 356.894 l 21.082,-28.612 0.753,-2.259 56.471,-179.953 c 6.024,-16.564 -3.011,-33.882 -19.576,-39.152 z M 292.334,25.6 l 98.635,94.871 h -98.635 z m 73.789,456.282 H 15.252 V 45.929 h 20.329 v 412.612 c 0,4.518 3.012,7.529 7.529,7.529 h 323.012 v 15.812 z m 36.141,-30.87 H 401.511 50.64 V 15.059 H 277.275 V 128 c 0,4.518 3.012,7.529 7.529,7.529 H 402.263 V 192 l -35.388,111.435 v 2.259 l 1.506,95.624 c 0,3.012 2.259,6.024 5.271,6.776 3.012,0.753 6.776,0 8.282,-3.012 l 20.329,-27.106 v 73.036 z m -19.577,-73.036 -1.506,-62.494 37.647,12.047 z M 481.323,141.553 427.111,313.977 383.44,299.671 437.652,128 c 3.012,-8.282 12.047,-13.553 20.329,-10.541 l 12.047,3.765 c 9.036,2.258 14.306,12.047 11.295,20.329 z" />
			<path
   id="path4"
   d="m 101.84,135.529 h 108.424 c 4.518,0 7.529,-3.012 7.529,-7.529 V 51.2 c 0,-4.518 -3.012,-7.529 -7.529,-7.529 H 101.84 c -4.518,0 -7.529,3.012 -7.529,7.529 V 128 c 0,3.765 3.765,7.529 7.529,7.529 z m 7.53,-76.8 h 93.365 V 120.47 H 109.37 Z" />
			<path
   id="path6"
   d="m 86.782,206.306 h 228.894 c 4.518,0 7.529,-3.012 7.529,-7.529 0,-4.518 -3.012,-7.529 -7.529,-7.529 H 86.782 c -4.518,0 -7.529,3.012 -7.529,7.529 -0.001,4.517 3.011,7.529 7.529,7.529 z" />
			<path
   id="path8"
   d="m 86.782,261.271 h 228.894 c 4.518,0 7.529,-3.012 7.529,-7.529 0,-4.517 -3.012,-7.529 -7.529,-7.529 H 86.782 c -4.518,0 -7.529,3.012 -7.529,7.529 0,4.517 3.011,7.529 7.529,7.529 z" />
			<path
   id="path10"
   d="m 86.782,316.235 h 228.894 c 4.518,0 7.529,-3.012 7.529,-7.529 0,-4.517 -3.012,-7.529 -7.529,-7.529 H 86.782 c -4.518,0 -7.529,3.012 -7.529,7.529 0,4.517 3.011,7.529 7.529,7.529 z" />
			<path
   id="path12"
   d="m 322.452,363.671 c 0,-4.518 -3.012,-7.529 -7.529,-7.529 H 86.782 c -4.518,0 -7.529,3.012 -7.529,7.529 0,4.517 3.012,7.529 7.529,7.529 h 228.894 c 3.764,0 6.776,-3.765 6.776,-7.529 z" />
			<path
   id="path14"
   d="M 347.299,411.106 H 233.605 c -4.518,0 -7.529,3.012 -7.529,7.529 0,4.517 3.012,7.529 7.529,7.529 h 112.941 c 4.518,0 7.529,-3.012 7.529,-7.529 0,-4.517 -3.011,-7.529 -6.776,-7.529 z" />
		</g>
	</g>
</g>
<g
   transform="translate(0,0.05899148)"
   id="g22">
</g>
<g
   transform="translate(0,0.05899148)"
   id="g24">
</g>
<g
   transform="translate(0,0.05899148)"
   id="g26">
</g>
<g
   transform="translate(0,0.05899148)"
   id="g28">
</g>
<g
   transform="translate(0,0.05899148)"
   id="g30">
</g>
<g
   transform="translate(0,0.05899148)"
   id="g32">
</g>
<g
   transform="translate(0,0.05899148)"
   id="g34">
</g>
<g
   transform="translate(0,0.05899148)"
   id="g36">
</g>
<g
   transform="translate(0,0.05899148)"
   id="g38">
</g>
<g
   transform="translate(0,0.05899148)"
   id="g40">
</g>
<g
   transform="translate(0,0.05899148)"
   id="g42">
</g>
<g
   transform="translate(0,0.05899148)"
   id="g44">
</g>
<g
   transform="translate(0,0.05899148)"
   id="g46">
</g>
<g
   transform="translate(0,0.05899148)"
   id="g48">
</g>
<g
   transform="translate(0,0.05899148)"
   id="g50">
</g>
</svg>