<?xml version="1.0" encoding="iso-8859-1"?>
<!-- Generator: Adobe Illustrator 19.0.0, SVG Export Plug-In . SVG Version: 6.00 Build 0)  -->
<svg version="1.1" id="Capa_1" xmlns="http://www.w3.org/2000/svg" xmlns:xlink="http://www.w3.org/1999/xlink" x="0px" y="0px"
	 viewBox="0 0 480 480" style="enable-background:new 0 0 480 480;" xml:space="preserve">
<g>
	<g>
		<path d="M456,88H331.784C310.883,57.95,276.604,40.023,240,40V24c0-13.255-10.745-24-24-24H24C10.745,0,0,10.745,0,24v96
			c0,13.255,10.745,24,24,24h17.6l24.264,29.128c2.827,3.395,7.871,3.856,11.267,1.029c0.374-0.311,0.718-0.656,1.029-1.029
			L102.4,144h25.992c-0.192,2.656-0.408,5.296-0.408,8v16c-0.35,4.067,2.664,7.648,6.731,7.999c0.752,0.065,1.509,0.014,2.245-0.151
			c2.374,20.028,9.473,39.205,20.712,55.952c-13.661-0.983-25.182-10.552-28.656-23.8H136v-16h-16c-4.418,0-8,3.582-8,8
			c0.031,26.497,21.503,47.969,48,48h10.4c3.592,3.891,7.423,7.555,11.472,10.968c0.68,0.568,1.408,1.056,2.104,1.6v29.672
			l-66.528,22.176c-2.975,0.993-5.096,3.633-5.424,6.752l-16,152c-0.459,4.394,2.73,8.329,7.125,8.789
			c0.283,0.03,0.567,0.044,0.851,0.043h272c4.418-0.004,7.996-3.59,7.992-8.008c0-0.265-0.014-0.529-0.04-0.792l-16-152
			c-0.328-3.119-2.449-5.759-5.424-6.752L296,290.24v-29.672c0.696-0.544,1.416-1.032,2.104-1.6
			c18.567-15.484,32.337-35.939,39.696-58.968h7.8l24.264,29.128c2.827,3.395,7.871,3.856,11.267,1.029
			c0.374-0.311,0.718-0.656,1.029-1.029L406.4,200H456c13.255,0,24-10.745,24-24v-64C480,98.745,469.255,88,456,88z M130.656,128
			H98.664c-2.375-0.003-4.629,1.049-6.152,2.872L72,155.504l-20.512-24.632c-1.523-1.823-3.777-2.875-6.152-2.872H24
			c-4.418,0-8-3.582-8-8V24c0-4.418,3.582-8,8-8h192c4.418,0,8,3.582,8,8v17.28C177.893,47.993,140.738,82.511,130.656,128z
			 M184,464h-71.12l14.536-138.04L184,307.104V464z M200,464V357.768l28.352-9.448l-20.072,73.6c-0.518,1.898-0.319,3.92,0.56,5.68
			l18.216,36.4H200z M200,340.896v-15.952l19.144,9.6L200,340.896z M224.52,423.16L240,366.4l15.464,56.76L240,454.112
			L224.52,423.16z M280,464h-27.056l18.208-36.424c0.879-1.76,1.078-3.782,0.56-5.68l-20.072-73.6l28.36,9.472V464z M280,340.896
			l-19.144-6.4L280,324.944V340.896z M280,296v11.056l-40,20l-40-20V270.64c25.205,12.488,54.795,12.488,80,0V296z M352.584,325.96
			L367.12,464H296V307.104L352.584,325.96z M287.848,246.672c-27.08,22.557-66.245,23.111-93.952,1.328H232v-16h-54.28
			c-15.289-18.507-24.182-41.463-25.352-65.44c31.963-20.883,67.326-36.027,104.496-44.752c4.79,26.705,28.005,46.154,55.136,46.192
			h15.616C325.777,198.586,311.387,227.055,287.848,246.672z M312,152c-22.08-0.026-39.974-17.92-40-40
			c0.004-4.418-3.575-8.003-7.993-8.007c-0.586,0-1.17,0.063-1.743,0.191l-4.8,1.072c-40.374,8.922-78.809,25.046-113.464,47.6V152
			c0-53.019,42.981-96,96-96s96,42.981,96,96H312z M464,176c0,4.418-3.582,8-8,8h-53.336c-2.375-0.003-4.629,1.049-6.152,2.872
			L376,211.504l-20.512-24.624c-1.521-1.826-3.775-2.881-6.152-2.88h-7.592c0.96-5.289,1.585-10.633,1.872-16H344
			c4.418,0,8-3.582,8-8v-8c-0.018-16.618-3.764-33.021-10.96-48H456c4.418,0,8,3.582,8,8V176z"/>
	</g>
</g>
<g>
</g>
<g>
</g>
<g>
</g>
<g>
</g>
<g>
</g>
<g>
</g>
<g>
</g>
<g>
</g>
<g>
</g>
<g>
</g>
<g>
</g>
<g>
</g>
<g>
</g>
<g>
</g>
<g>
</g>
</svg>
