<?xml version="1.0" encoding="UTF-8" standalone="no"?>
<svg
   xmlns:dc="http://purl.org/dc/elements/1.1/"
   xmlns:cc="http://creativecommons.org/ns#"
   xmlns:rdf="http://www.w3.org/1999/02/22-rdf-syntax-ns#"
   xmlns:svg="http://www.w3.org/2000/svg"
   xmlns="http://www.w3.org/2000/svg"
   height="480"
   width="480"
   xml:space="preserve"
   viewBox="0 0 480 480"
   y="0px"
   x="0px"
   id="Capa_1"
   version="1.1"><metadata
   id="metadata47"><rdf:RDF><cc:Work
       rdf:about=""><dc:format>image/svg+xml</dc:format><dc:type
         rdf:resource="http://purl.org/dc/dcmitype/StillImage" /><dc:title></dc:title></cc:Work></rdf:RDF></metadata><defs
   id="defs45" />
<g
   transform="translate(0,0.00501958)"
   id="g10">
	<g
   id="g8">
		<g
   id="g6">
			<path
   id="path2"
   d="m 441.931,280.252 c -1.1,-0.29 -2.252,-0.326 -3.368,-0.104 l -78.568,14.264 v -38.4 c 0,-4.418 -3.582,-8 -8,-8 h -48 c -2.122,0 -4.156,0.844 -5.656,2.344 l -29.656,29.656 h -49.376 l -29.656,-29.656 c -1.5,-1.5 -3.534,-2.344 -5.656,-2.344 h -48 c -4.418,0 -8,3.582 -8,8 v 38.056 L 52.523,277.516 c -2.984,-0.875 -6.026,-1.535 -9.104,-1.976 -4.371,-0.646 -8.438,2.374 -9.084,6.745 -0.617,4.172 2.112,8.107 6.236,8.992 l 8,1.76 c 9.822,2.998 18.429,9.055 24.568,17.288 2.302,3.104 4.23,6.468 5.744,10.024 l -29.288,-5.864 c -2.343,-0.99 -4.799,-1.689 -7.312,-2.08 -20.195,-2.907 -38.924,11.108 -41.831,31.303 -0.003,0.021 -0.006,0.043 -0.009,0.065 -3.421,24.159 13.354,46.531 37.504,50.016 2.507,0.356 5.036,0.535 7.568,0.536 1.088,0 2.12,-0.224 3.2,-0.288 v 0.256 l 87,-8 -37.6,40.264 c -3.013,3.231 -2.836,8.294 0.395,11.307 1.488,1.388 3.45,2.157 5.485,2.149 h 24 v 24 c 10e-4,4.418 3.583,7.999 8.002,7.998 2.121,0 4.154,-0.843 5.654,-2.342 l 77.656,-77.656 h 49.376 l 77.656,77.656 c 1.5,1.5 3.534,2.344 5.656,2.344 1.052,0.003 2.093,-0.203 3.064,-0.608 2.989,-1.239 4.937,-4.157 4.936,-7.392 v -24 h 24 c 4.418,0.003 8.002,-3.577 8.005,-7.995 10e-4,-2.031 -0.77,-3.986 -2.157,-5.469 l -38.104,-40.8 87.688,6.264 c 0.184,0 0.384,0 0.568,0 0.653,0.001 1.303,-0.08 1.936,-0.24 13.168,-3.288 38.064,-19.184 38.064,-55.76 0,-36.576 -24.896,-52.473 -38.064,-55.761 z M 35.163,346.629 c 0,0 0,0 0,0 0.274,-1.903 1.902,-3.317 3.824,-3.321 0.182,-0.002 0.364,0.011 0.544,0.04 l 2.104,-14.784 c 7.471,1.955 12.289,9.202 11.2,16.848 -0.813,5.748 -6.132,9.749 -11.88,8.936 -3.731,-0.532 -6.325,-3.988 -5.792,-7.719 z m 47.232,-0.297 C 79.479,366.697 60.61,380.846 40.243,377.94 h -0.032 c -15.41,-2.215 -26.116,-16.49 -23.928,-31.904 1.185,-8.262 7.153,-15.038 15.2,-17.256 -6.539,2.665 -11.176,8.595 -12.184,15.584 -1.769,12.479 6.9,24.034 19.376,25.824 14.503,2.078 27.944,-7.995 30.022,-22.498 10e-4,-0.005 10e-4,-0.009 0.002,-0.014 0.616,-4.442 0.258,-8.966 -1.048,-13.256 l 15.128,3.024 c 0.138,2.968 0.01,5.943 -0.384,8.888 z m 4.344,28.408 c 6.138,-7.497 10.103,-16.534 11.464,-26.128 2.397,-16.706 -1.864,-33.685 -11.864,-47.28 l 41.656,9.08 v 33.6 c 0,4.418 3.582,8 8,8 h 31.72 L 152.139,368.7 Z m 121.256,5.96 -64,64 v -12.688 c 0,-4.418 -3.582,-8 -8,-8 h -13.6 l 37.272,-39.936 1.064,-0.064 -0.088,-0.936 47.352,-50.76 z m 0,-72 -27.312,27.312 h -36.688 v -72 h 36.688 l 27.312,27.312 z m 56,3.312 v 64 h -40 v -80 h 40 z m 16,-20.688 27.312,-27.312 h 36.688 v 72 H 307.307 L 279.995,308.7 Z m 85.6,132.688 h -13.6 c -4.418,0 -8,3.582 -8,8 V 444.7 l -64,-64 v -48.384 l 47.488,50.896 -0.056,0.8 0.864,0.064 z m 73.497,-48.088 -103.377,-7.376 -15.44,-16.536 h 31.72 c 4.418,0 8,-3.582 8,-8 v -33.328 l 79.488,-14.448 c 5.424,1.984 24.512,10.976 24.512,39.776 0,29.518 -19.997,38.231 -24.903,39.912 z" />
			<path
   id="path4"
   d="m 69.467,79.596 v 0 l 66.528,22.176 v 74.24 c -0.001,1.016 0.192,2.024 0.568,2.968 0.736,1.832 18.984,45.032 103.432,45.032 v -16 c -66,0 -84.672,-27.688 -88,-33.824 v -67.08 l 85.472,28.488 c 1.64,0.555 3.416,0.555 5.056,0 l 37.472,-12.488 v 6.4 c -8.99,3.199 -15.217,11.438 -15.84,20.96 l -16,80 15.68,3.136 12.16,-60.92 c 1.273,0.742 2.612,1.363 4,1.856 v 57.472 h 16 V 174.54 c 1.388,-0.493 2.727,-1.114 4,-1.856 l 12.16,60.928 15.68,-3.136 -16,-80 c -0.611,-9.534 -6.84,-17.789 -15.84,-20.992 v -11.712 l 32,-10.664 v 74.504 c -1.527,1.968 -3.266,3.763 -5.184,5.352 l 10.4,12.192 c 4.029,-3.188 7.417,-7.11 9.984,-11.56 0.538,-1.117 0.812,-2.344 0.8,-3.584 v -82.24 l 66.528,-22.176 c 4.197,-1.38 6.482,-5.901 5.102,-10.098 -0.794,-2.415 -2.687,-4.308 -5.102,-5.102 l -168,-56 c -1.64,-0.552 -3.416,-0.552 -5.056,0 l -168,56 c -4.197,1.38 -6.482,5.901 -5.102,10.098 0.793,2.415 2.687,4.309 5.102,5.102 z m 218.528,80.416 c -4.418,0 -8,-3.582 -8,-8 0,-4.418 3.582,-8 8,-8 4.418,0 8,3.582 8,8 0,4.418 -3.582,8 -8,8 z m -48,-135.568 142.704,47.568 -87.312,29.104 c -0.626,-1.644 -1.776,-3.036 -3.272,-3.96 L 262.683,79.492 c 0.837,-2.406 1.28,-4.932 1.312,-7.48 0,-13.255 -10.745,-24 -24,-24 -13.255,0 -24,10.745 -24,24 0,13.255 10.745,24 24,24 4.54,-0.013 8.982,-1.326 12.8,-3.784 l 24.728,14.84 L 239.995,119.58 97.291,72.012 Z m 8,47.568 c 0,4.418 -3.582,8 -8,8 -4.418,0 -8,-3.582 -8,-8 0,-4.418 3.582,-8 8,-8 4.418,0 8,3.582 8,8 z" />
		</g>
	</g>
</g>
<g
   transform="translate(0,0.00501958)"
   id="g12">
</g>
<g
   transform="translate(0,0.00501958)"
   id="g14">
</g>
<g
   transform="translate(0,0.00501958)"
   id="g16">
</g>
<g
   transform="translate(0,0.00501958)"
   id="g18">
</g>
<g
   transform="translate(0,0.00501958)"
   id="g20">
</g>
<g
   transform="translate(0,0.00501958)"
   id="g22">
</g>
<g
   transform="translate(0,0.00501958)"
   id="g24">
</g>
<g
   transform="translate(0,0.00501958)"
   id="g26">
</g>
<g
   transform="translate(0,0.00501958)"
   id="g28">
</g>
<g
   transform="translate(0,0.00501958)"
   id="g30">
</g>
<g
   transform="translate(0,0.00501958)"
   id="g32">
</g>
<g
   transform="translate(0,0.00501958)"
   id="g34">
</g>
<g
   transform="translate(0,0.00501958)"
   id="g36">
</g>
<g
   transform="translate(0,0.00501958)"
   id="g38">
</g>
<g
   transform="translate(0,0.00501958)"
   id="g40">
</g>
</svg>