<?xml version="1.0" encoding="UTF-8" standalone="no"?>
<svg
   xmlns:dc="http://purl.org/dc/elements/1.1/"
   xmlns:cc="http://creativecommons.org/ns#"
   xmlns:rdf="http://www.w3.org/1999/02/22-rdf-syntax-ns#"
   xmlns:svg="http://www.w3.org/2000/svg"
   xmlns="http://www.w3.org/2000/svg"
   height="512"
   width="512"
   xml:space="preserve"
   viewBox="0 0 512.00002 512.00002"
   y="0px"
   x="0px"
   id="Layer_1"
   version="1.1"><metadata
   id="metadata79"><rdf:RDF><cc:Work
       rdf:about=""><dc:format>image/svg+xml</dc:format><dc:type
         rdf:resource="http://purl.org/dc/dcmitype/StillImage" /><dc:title></dc:title></cc:Work></rdf:RDF></metadata><defs
   id="defs77" />
<g
   transform="translate(0,-9.765625e-4)"
   id="g6">
	<g
   id="g4">
		<path
   id="path2"
   d="M 463.996,126.864 340.192,3.061 C 338.231,1.101 335.574,0 332.803,0 H 95.726 C 67.724,0 44.944,22.782 44.944,50.784 v 410.434 c 0,28.001 22.781,50.783 50.783,50.783 h 320.547 c 28.002,0 50.783,-22.781 50.783,-50.783 V 134.253 c -0.001,-2.771 -1.102,-5.429 -3.061,-7.389 z M 343.255,35.679 431.382,123.805 H 373.14 c -7.984,0 -15.49,-3.109 -21.134,-8.753 -5.645,-5.643 -8.752,-13.148 -8.751,-21.131 z m 102.903,425.538 c 0,16.479 -13.406,29.885 -29.884,29.885 H 95.726 c -16.479,0 -29.885,-13.406 -29.885,-29.885 V 50.784 C 65.842,34.305 79.248,20.898 95.726,20.898 h 226.631 v 73.021 c -0.002,13.565 5.28,26.318 14.871,35.909 9.592,9.592 22.345,14.874 35.911,14.874 h 73.018 v 316.515 z" />
	</g>
</g>
<g
   transform="translate(0,-9.765625e-4)"
   id="g12">
	<g
   id="g10">
		<path
   id="path8"
   d="m 147.789,303.745 h -4.678 c -5.77,0 -10.449,4.678 -10.449,10.449 0,5.771 4.679,10.449 10.449,10.449 h 4.678 c 5.77,0 10.449,-4.678 10.449,-10.449 0,-5.771 -4.679,-10.449 -10.449,-10.449 z" />
	</g>
</g>
<g
   transform="translate(0,-9.765625e-4)"
   id="g18">
	<g
   id="g16">
		<path
   id="path14"
   d="M 368.889,303.745 H 181.593 c -5.77,0 -10.449,4.678 -10.449,10.449 0,5.771 4.679,10.449 10.449,10.449 h 187.296 c 5.77,0 10.449,-4.678 10.449,-10.449 0,-5.771 -4.679,-10.449 -10.449,-10.449 z" />
	</g>
</g>
<g
   transform="translate(0,-9.765625e-4)"
   id="g24">
	<g
   id="g22">
		<path
   id="path20"
   d="m 147.789,256 h -4.678 c -5.77,0 -10.449,4.678 -10.449,10.449 0,5.771 4.679,10.449 10.449,10.449 h 4.678 c 5.77,0 10.449,-4.678 10.449,-10.449 0,-5.771 -4.679,-10.449 -10.449,-10.449 z" />
	</g>
</g>
<g
   transform="translate(0,-9.765625e-4)"
   id="g30">
	<g
   id="g28">
		<path
   id="path26"
   d="M 368.889,256 H 181.593 c -5.77,0 -10.449,4.678 -10.449,10.449 0,5.771 4.679,10.449 10.449,10.449 h 187.296 c 5.77,0 10.449,-4.678 10.449,-10.449 0,-5.771 -4.679,-10.449 -10.449,-10.449 z" />
	</g>
</g>
<g
   transform="translate(0,-9.765625e-4)"
   id="g36">
	<g
   id="g34">
		<path
   id="path32"
   d="m 147.789,208.255 h -4.678 c -5.77,0 -10.449,4.678 -10.449,10.449 0,5.771 4.679,10.449 10.449,10.449 h 4.678 c 5.77,0 10.449,-4.678 10.449,-10.449 0,-5.771 -4.679,-10.449 -10.449,-10.449 z" />
	</g>
</g>
<g
   transform="translate(0,-9.765625e-4)"
   id="g42">
	<g
   id="g40">
		<path
   id="path38"
   d="M 368.889,208.255 H 181.593 c -5.77,0 -10.449,4.678 -10.449,10.449 0,5.771 4.679,10.449 10.449,10.449 h 187.296 c 5.77,0 10.449,-4.678 10.449,-10.449 0,-5.771 -4.679,-10.449 -10.449,-10.449 z" />
	</g>
</g>
<g
   transform="translate(0,-9.765625e-4)"
   id="g44">
</g>
<g
   transform="translate(0,-9.765625e-4)"
   id="g46">
</g>
<g
   transform="translate(0,-9.765625e-4)"
   id="g48">
</g>
<g
   transform="translate(0,-9.765625e-4)"
   id="g50">
</g>
<g
   transform="translate(0,-9.765625e-4)"
   id="g52">
</g>
<g
   transform="translate(0,-9.765625e-4)"
   id="g54">
</g>
<g
   transform="translate(0,-9.765625e-4)"
   id="g56">
</g>
<g
   transform="translate(0,-9.765625e-4)"
   id="g58">
</g>
<g
   transform="translate(0,-9.765625e-4)"
   id="g60">
</g>
<g
   transform="translate(0,-9.765625e-4)"
   id="g62">
</g>
<g
   transform="translate(0,-9.765625e-4)"
   id="g64">
</g>
<g
   transform="translate(0,-9.765625e-4)"
   id="g66">
</g>
<g
   transform="translate(0,-9.765625e-4)"
   id="g68">
</g>
<g
   transform="translate(0,-9.765625e-4)"
   id="g70">
</g>
<g
   transform="translate(0,-9.765625e-4)"
   id="g72">
</g>
</svg>