<?xml version="1.0" encoding="UTF-8" standalone="no"?>
<svg
   xmlns:dc="http://purl.org/dc/elements/1.1/"
   xmlns:cc="http://creativecommons.org/ns#"
   xmlns:rdf="http://www.w3.org/1999/02/22-rdf-syntax-ns#"
   xmlns:svg="http://www.w3.org/2000/svg"
   xmlns="http://www.w3.org/2000/svg"
   height="388"
   width="388"
   xml:space="preserve"
   viewBox="0 0 388.00001 388.00001"
   y="0px"
   x="0px"
   id="Capa_1"
   version="1.1"><metadata
   id="metadata51"><rdf:RDF><cc:Work
       rdf:about=""><dc:format>image/svg+xml</dc:format><dc:type
         rdf:resource="http://purl.org/dc/dcmitype/StillImage" /><dc:title></dc:title></cc:Work></rdf:RDF></metadata><defs
   id="defs49" />
<g
   transform="translate(0,-0.30899048)"
   id="g14">
	<g
   id="g12">
		<g
   id="g10">
			<path
   id="path2"
   d="m 201.173,307.042 c -11.291,-0.174 -22.177,-4.233 -30.825,-11.494 L 113.401,245.393 C 104.44,237.02 90.737,236.357 81.009,243.826 L 0.03,303.384 v 38.661 c -0.582,10.371 7.355,19.25 17.726,19.832 0.534,0.03 1.07,0.037 1.605,0.021 h 286.824 c 11.494,0 22.988,-8.359 22.988,-19.853 V 240.691 L 226.25,300.25 c -7.566,4.548 -16.249,6.9 -25.077,6.792 z" />
			<circle
   id="circle4"
   r="22.988001"
   cy="182.69901"
   cx="196.993" />
			<path
   id="path6"
   d="m 383.508,67.238 c -3.335,-4.544 -8.487,-7.406 -14.106,-7.837 L 84.667,26.487 c -5.551,-0.465 -11.091,1.012 -15.673,4.18 -4.058,3.524 -6.817,8.307 -7.837,13.584 l -4.702,40.751 h 249.731 c 23.809,0.54 43.061,19.562 43.886,43.363 v 184.424 c 0,-1.045 4.702,-2.09 6.792,-4.18 4.326,-3.397 6.834,-8.606 6.792,-14.106 L 388.21,82.389 c 0.543,-5.479 -1.153,-10.944 -4.702,-15.151 z" />
			<path
   id="path8"
   d="M 306.185,105.899 H 19.361 C 7.867,105.899 0.03,116.87 0.03,128.364 v 148.898 l 68.963,-50.155 c 17.506,-12.986 41.724,-11.895 57.992,2.612 l 57.469,50.155 c 8.666,7.357 21.044,8.406 30.824,2.612 l 113.894,-66.351 v -87.771 c -0.79,-12.265 -10.707,-21.956 -22.987,-22.465 z M 196.993,226.584 c -24.237,0 -43.886,-19.648 -43.886,-43.886 0,-24.237 19.648,-43.886 43.886,-43.886 24.237,0 43.886,19.648 43.886,43.886 0,24.238 -19.648,43.886 -43.886,43.886 z" />
		</g>
	</g>
</g>
<g
   transform="translate(0,-0.30899048)"
   id="g16">
</g>
<g
   transform="translate(0,-0.30899048)"
   id="g18">
</g>
<g
   transform="translate(0,-0.30899048)"
   id="g20">
</g>
<g
   transform="translate(0,-0.30899048)"
   id="g22">
</g>
<g
   transform="translate(0,-0.30899048)"
   id="g24">
</g>
<g
   transform="translate(0,-0.30899048)"
   id="g26">
</g>
<g
   transform="translate(0,-0.30899048)"
   id="g28">
</g>
<g
   transform="translate(0,-0.30899048)"
   id="g30">
</g>
<g
   transform="translate(0,-0.30899048)"
   id="g32">
</g>
<g
   transform="translate(0,-0.30899048)"
   id="g34">
</g>
<g
   transform="translate(0,-0.30899048)"
   id="g36">
</g>
<g
   transform="translate(0,-0.30899048)"
   id="g38">
</g>
<g
   transform="translate(0,-0.30899048)"
   id="g40">
</g>
<g
   transform="translate(0,-0.30899048)"
   id="g42">
</g>
<g
   transform="translate(0,-0.30899048)"
   id="g44">
</g>
</svg>