<?xml version="1.0" encoding="UTF-8" standalone="no"?>
<svg
   xmlns:dc="http://purl.org/dc/elements/1.1/"
   xmlns:cc="http://creativecommons.org/ns#"
   xmlns:rdf="http://www.w3.org/1999/02/22-rdf-syntax-ns#"
   xmlns:svg="http://www.w3.org/2000/svg"
   xmlns="http://www.w3.org/2000/svg"
   height="430"
   width="430"
   xml:space="preserve"
   viewBox="0 0 429.99999 429.99999"
   y="0px"
   x="0px"
   id="Capa_1"
   version="1.1"><metadata
   id="metadata47"><rdf:RDF><cc:Work
       rdf:about=""><dc:format>image/svg+xml</dc:format><dc:type
         rdf:resource="http://purl.org/dc/dcmitype/StillImage" /><dc:title></dc:title></cc:Work></rdf:RDF></metadata><defs
   id="defs45" />
<g
   transform="translate(0,-0.23001099)"
   id="g10">
	<g
   id="g8">
		<g
   id="g6">
			<path
   id="path2"
   d="m 217.875,159.668 c -24.237,0 -43.886,19.648 -43.886,43.886 0,24.237 19.648,43.886 43.886,43.886 24.237,0 43.886,-19.648 43.886,-43.886 0,-24.238 -19.648,-43.886 -43.886,-43.886 z m 0,66.873 c -12.696,0 -22.988,-10.292 -22.988,-22.988 0,-12.696 10.292,-22.988 22.988,-22.988 v 0 c 12.696,0 22.988,10.292 22.988,22.988 0,12.696 -10.292,22.988 -22.988,22.988 z" />
			<path
   id="path4"
   d="M 392.896,59.357 107.639,26.966 C 96.568,25.392 85.351,28.624 76.815,35.848 68.28,42.466 62.809,52.276 61.664,63.015 L 56.44,105.856 H 40.243 c -22.988,0 -40.229,20.375 -40.229,43.363 V 362.9 c -0.579,21.921 16.722,40.162 38.644,40.741 0.528,0.014 1.057,0.017 1.585,0.01 h 286.824 c 22.988,0 43.886,-17.763 43.886,-40.751 v -8.359 c 7.127,-1.377 13.888,-4.224 19.853,-8.359 8.465,-7.127 13.885,-17.22 15.151,-28.212 L 429.99,105.856 C 432.44,82.815 415.905,62.088 392.896,59.357 Z M 350.055,362.9 c 0,11.494 -11.494,19.853 -22.988,19.853 H 40.243 c -10.383,0.305 -19.047,-7.865 -19.352,-18.248 -0.016,-0.535 -0.009,-1.07 0.021,-1.605 v -38.661 l 80.98,-59.559 c 9.728,-7.469 23.43,-6.805 32.392,1.567 l 56.947,50.155 c 8.648,7.261 19.534,11.32 30.825,11.494 8.828,0.108 17.511,-2.243 25.078,-6.792 L 350.056,261.545 V 362.9 Z m 0,-125.91 -113.894,66.351 c -9.78,5.794 -22.159,4.745 -30.825,-2.612 L 147.867,250.051 C 131.396,235.898 107.322,235.03 89.875,247.961 L 20.912,298.116 V 149.219 c 0,-11.494 7.837,-22.465 19.331,-22.465 h 286.824 c 12.28,0.509 22.197,10.201 22.988,22.465 z m 59.057,-133.955 c -0.007,0.069 -0.013,0.139 -0.021,0.208 l -24.555,212.114 c 0.042,5.5 -2.466,10.709 -6.792,14.106 -2.09,2.09 -6.792,3.135 -6.792,4.18 V 149.219 c -0.825,-23.801 -20.077,-42.824 -43.886,-43.363 H 77.337 l 4.702,-40.751 c 1.02,-5.277 3.779,-10.059 7.837,-13.584 4.582,-3.168 10.122,-4.645 15.674,-4.18 l 284.735,32.914 c 11.488,1.091 19.918,11.29 18.827,22.78 z" />
		</g>
	</g>
</g>
<g
   transform="translate(0,-0.23001099)"
   id="g12">
</g>
<g
   transform="translate(0,-0.23001099)"
   id="g14">
</g>
<g
   transform="translate(0,-0.23001099)"
   id="g16">
</g>
<g
   transform="translate(0,-0.23001099)"
   id="g18">
</g>
<g
   transform="translate(0,-0.23001099)"
   id="g20">
</g>
<g
   transform="translate(0,-0.23001099)"
   id="g22">
</g>
<g
   transform="translate(0,-0.23001099)"
   id="g24">
</g>
<g
   transform="translate(0,-0.23001099)"
   id="g26">
</g>
<g
   transform="translate(0,-0.23001099)"
   id="g28">
</g>
<g
   transform="translate(0,-0.23001099)"
   id="g30">
</g>
<g
   transform="translate(0,-0.23001099)"
   id="g32">
</g>
<g
   transform="translate(0,-0.23001099)"
   id="g34">
</g>
<g
   transform="translate(0,-0.23001099)"
   id="g36">
</g>
<g
   transform="translate(0,-0.23001099)"
   id="g38">
</g>
<g
   transform="translate(0,-0.23001099)"
   id="g40">
</g>
</svg>