<?xml version="1.0" encoding="UTF-8" standalone="no"?>
<svg
   xmlns:dc="http://purl.org/dc/elements/1.1/"
   xmlns:cc="http://creativecommons.org/ns#"
   xmlns:rdf="http://www.w3.org/1999/02/22-rdf-syntax-ns#"
   xmlns:svg="http://www.w3.org/2000/svg"
   xmlns="http://www.w3.org/2000/svg"
   xml:space="preserve"
   viewBox="0 0 444.00001 444.00001"
   height="444"
   width="444"
   y="0px"
   x="0px"
   id="Capa_1"
   version="1.1"><metadata
   id="metadata47"><rdf:RDF><cc:Work
       rdf:about=""><dc:format>image/svg+xml</dc:format><dc:type
         rdf:resource="http://purl.org/dc/dcmitype/StillImage" /><dc:title></dc:title></cc:Work></rdf:RDF></metadata><defs
   id="defs45" />
<g
   transform="translate(0,-0.05899048)"
   id="g10">
	<g
   id="g8">
		<g
   id="g6">
			<path
   id="path2"
   d="m 357.76,312.234 c -3.28,-7.848 -11.178,-12.873 -18.713,-15.963 l -50.938,-23.455 -24.473,-20.639 -39.323,39.111 h -0.03 l 16.971,113.445 c 0.061,0.389 -0.04,0.787 -0.271,1.105 l -17.744,24.283 c -0.282,0.391 -0.732,0.617 -1.212,0.617 -0.48,0 -0.93,-0.229 -1.212,-0.617 l -17.742,-24.283 c -0.234,-0.318 -0.332,-0.719 -0.273,-1.105 l 16.969,-113.447 h -0.026 l -39.321,-39.109 -24.473,20.639 -50.941,23.455 c -7.537,3.09 -14.943,7.783 -18.711,15.963 0,0 -55.371,131.824 -25.338,131.824 H 383.104 C 413.132,444.061 357.76,312.234 357.76,312.234 Z" />
			<path
   id="path4"
   d="m 361.298,131.489 c 0.767,-0.083 1.457,-0.449 1.932,-1.042 0.481,-0.592 0.698,-1.355 0.613,-2.114 -0.57,-4.869 -1.143,-9.728 -1.708,-14.597 l -1.187,-10.189 c -0.181,-1.521 -1.542,-2.627 -3.074,-2.49 l -2.203,0.003 0.042,-34.202 1.153,-0.419 3.845,-1.388 c 3.256,-1.178 5.424,-4.265 5.424,-7.724 0,-3.46 -2.168,-6.548 -5.424,-7.727 L 224.819,0.49 c -1.807,-0.653 -3.783,-0.653 -5.586,0 L 83.339,49.6 c -3.254,1.179 -5.422,4.267 -5.422,7.727 0,3.459 2.168,6.546 5.422,7.724 l 50.236,18.155 c -3.546,11.195 -5.16,24.013 -5.015,38.284 0.884,81.402 48.138,129.944 91.862,129.944 43.213,0 90.979,-48.542 91.859,-129.944 0.146,-13.832 -1.379,-26.291 -4.697,-37.238 l 36.528,-13.2 0.077,30.021 -2.207,-10e-4 c -1.533,-0.134 -2.895,0.968 -3.07,2.501 l -2.857,24.788 c -0.086,0.755 0.137,1.51 0.615,2.104 0.479,0.591 1.176,0.97 1.932,1.033 M 220.428,231.666 c -38.148,0 -64.471,-44.688 -69.781,-89.361 -4.91,-41.314 54.838,-43.237 58.308,-17.63 1.069,7.872 -7.97,16.305 -6.945,19.556 5.056,16.049 88.772,-52.383 88.2,-1.946 -0.403,35.611 -33.435,89.381 -69.782,89.381 z" />
		</g>
	</g>
</g>
<g
   transform="translate(0,-0.05899048)"
   id="g12">
</g>
<g
   transform="translate(0,-0.05899048)"
   id="g14">
</g>
<g
   transform="translate(0,-0.05899048)"
   id="g16">
</g>
<g
   transform="translate(0,-0.05899048)"
   id="g18">
</g>
<g
   transform="translate(0,-0.05899048)"
   id="g20">
</g>
<g
   transform="translate(0,-0.05899048)"
   id="g22">
</g>
<g
   transform="translate(0,-0.05899048)"
   id="g24">
</g>
<g
   transform="translate(0,-0.05899048)"
   id="g26">
</g>
<g
   transform="translate(0,-0.05899048)"
   id="g28">
</g>
<g
   transform="translate(0,-0.05899048)"
   id="g30">
</g>
<g
   transform="translate(0,-0.05899048)"
   id="g32">
</g>
<g
   transform="translate(0,-0.05899048)"
   id="g34">
</g>
<g
   transform="translate(0,-0.05899048)"
   id="g36">
</g>
<g
   transform="translate(0,-0.05899048)"
   id="g38">
</g>
<g
   transform="translate(0,-0.05899048)"
   id="g40">
</g>
</svg>