<?xml version="1.0" encoding="UTF-8" standalone="no"?>
<svg
   xmlns:dc="http://purl.org/dc/elements/1.1/"
   xmlns:cc="http://creativecommons.org/ns#"
   xmlns:rdf="http://www.w3.org/1999/02/22-rdf-syntax-ns#"
   xmlns:svg="http://www.w3.org/2000/svg"
   xmlns="http://www.w3.org/2000/svg"
   height="512"
   width="512"
   xml:space="preserve"
   viewBox="0 0 512.00002 512.00002"
   y="0px"
   x="0px"
   id="Layer_1"
   version="1.1"><metadata
   id="metadata55"><rdf:RDF><cc:Work
       rdf:about=""><dc:format>image/svg+xml</dc:format><dc:type
         rdf:resource="http://purl.org/dc/dcmitype/StillImage" /><dc:title></dc:title></cc:Work></rdf:RDF></metadata><defs
   id="defs53" />
<g
   transform="translate(0,-9.765625e-4)"
   id="g6">
	<g
   id="g4">
		<path
   id="path2"
   d="m 313.365,107.393 c -9.915,-11.15 -25.377,-17.545 -42.422,-17.545 -30.441,0 -57.651,20.784 -60.659,46.36 -1.349,11.698 2.281,23.047 10.221,31.955 9.756,10.946 25.08,17.223 42.048,17.223 31.23,0 58.04,-20.365 61.036,-46.333 1.35,-11.484 -2.28,-22.727 -10.224,-31.66 z m -14.189,28.814 c -1.537,13.335 -18.31,24.6 -36.625,24.6 -9.818,0 -18.678,-3.363 -23.699,-8.998 -3.307,-3.71 -4.703,-8.011 -4.156,-12.758 1.543,-13.118 18.48,-24.626 36.246,-24.626 9.886,0 18.879,3.477 24.058,9.299 2.274,2.557 4.846,6.794 4.176,12.483 z" />
	</g>
</g>
<g
   transform="translate(0,-9.765625e-4)"
   id="g12">
	<g
   id="g10">
		<path
   id="path8"
   d="m 301.752,369.483 c -3.072,-2.061 -10.262,-6.883 -4.458,-40.363 0.149,-0.73 0.732,-3.429 1.637,-7.623 2.061,-9.557 5.897,-27.344 10.066,-47.179 0.01,-0.044 0.02,-0.09 0.028,-0.134 4.256,-21.437 0.887,-40.19 -9.737,-54.233 -9.591,-12.678 -24.776,-20.45 -42.754,-21.882 -26.586,-2.127 -54.398,13.739 -62.918,29.357 -3.939,6.92 -2.053,12.54 -0.568,15.289 1.84,3.4 4.524,5.306 6.485,6.697 3.021,2.144 10.093,7.163 3.377,40.573 -0.628,3.056 -9.999,50.701 -11.238,57.465 -0.009,0.045 -0.016,0.091 -0.025,0.136 -3.692,21.54 -0.041,40.365 11.152,53.959 18.024,21.89 45.458,20.839 46.532,20.839 25.569,-0.001 51.128,-15.882 58.91,-31.079 3.757,-7.021 1.727,-12.589 0.167,-15.298 -1.925,-3.35 -4.66,-5.185 -6.656,-6.524 z M 284.926,269.336 c -4.149,19.742 -7.969,37.457 -10.023,46.979 -1.397,6.474 -1.679,7.789 -1.779,8.328 -0.007,0.043 -0.016,0.087 -0.023,0.132 -6.24,35.864 0.075,51.56 9.013,60.341 -2.442,2.179 -5.787,4.532 -9.928,6.668 -8.144,4.202 -17.165,6.375 -24.762,5.974 -11.067,-0.591 -19.858,-4.584 -25.418,-11.549 -6.475,-8.108 -8.6,-20.003 -6.146,-34.399 1.336,-7.279 10.72,-54.936 11.114,-56.832 0.007,-0.042 0.016,-0.082 0.025,-0.124 7.178,-35.688 1.274,-51.544 -7.43,-60.556 2.498,-2.114 5.905,-4.379 10.1,-6.405 8.251,-3.985 17.332,-5.924 24.911,-5.322 11.048,0.88 19.729,5.102 25.106,12.21 6.261,8.275 8.074,20.224 5.24,34.555 z" />
	</g>
</g>
<g
   transform="translate(0,-9.765625e-4)"
   id="g18">
	<g
   id="g16">
		<path
   id="path14"
   d="m 459.614,394.961 c 33.831,-40.598 52.388,-90.748 52.388,-141.964 0,-62.775 -26.778,-121.727 -75.397,-165.998 C 388.306,43.022 324.167,18.802 256.002,18.802 187.837,18.802 123.696,43.022 75.397,87 26.776,131.269 0,190.223 0,252.998 c 0,62.775 26.776,121.729 75.396,165.998 48.299,43.978 112.438,68.197 180.603,68.197 42.625,0 84.634,-9.73 121.869,-28.187 l 89.22,33.412 c 1.402,0.525 2.86,0.78 4.307,0.78 3.039,0 6.028,-1.127 8.339,-3.259 3.409,-3.147 4.755,-7.946 3.48,-12.407 z m -78.189,39.133 c -3.269,-1.225 -6.904,-1 -10.001,0.616 -34.94,18.256 -74.853,27.906 -115.424,27.906 -127.606,0 -231.422,-94.033 -231.422,-209.617 0,-115.584 103.815,-209.62 231.421,-209.62 127.606,0 231.423,94.034 231.423,209.617 0,48.095 -17.515,93.34 -50.652,130.846 -2.776,3.141 -3.759,7.483 -2.606,11.513 l 18.72,65.498 z" />
	</g>
</g>
<g
   transform="translate(0,-9.765625e-4)"
   id="g20">
</g>
<g
   transform="translate(0,-9.765625e-4)"
   id="g22">
</g>
<g
   transform="translate(0,-9.765625e-4)"
   id="g24">
</g>
<g
   transform="translate(0,-9.765625e-4)"
   id="g26">
</g>
<g
   transform="translate(0,-9.765625e-4)"
   id="g28">
</g>
<g
   transform="translate(0,-9.765625e-4)"
   id="g30">
</g>
<g
   transform="translate(0,-9.765625e-4)"
   id="g32">
</g>
<g
   transform="translate(0,-9.765625e-4)"
   id="g34">
</g>
<g
   transform="translate(0,-9.765625e-4)"
   id="g36">
</g>
<g
   transform="translate(0,-9.765625e-4)"
   id="g38">
</g>
<g
   transform="translate(0,-9.765625e-4)"
   id="g40">
</g>
<g
   transform="translate(0,-9.765625e-4)"
   id="g42">
</g>
<g
   transform="translate(0,-9.765625e-4)"
   id="g44">
</g>
<g
   transform="translate(0,-9.765625e-4)"
   id="g46">
</g>
<g
   transform="translate(0,-9.765625e-4)"
   id="g48">
</g>
</svg>