<?xml version="1.0" encoding="UTF-8" standalone="no"?>
<svg
   xmlns:dc="http://purl.org/dc/elements/1.1/"
   xmlns:cc="http://creativecommons.org/ns#"
   xmlns:rdf="http://www.w3.org/1999/02/22-rdf-syntax-ns#"
   xmlns:svg="http://www.w3.org/2000/svg"
   xmlns="http://www.w3.org/2000/svg"
   height="480"
   width="480"
   xml:space="preserve"
   viewBox="0 0 479.99999 479.99999"
   y="0px"
   x="0px"
   id="Capa_1"
   version="1.1"><metadata
   id="metadata73"><rdf:RDF><cc:Work
       rdf:about=""><dc:format>image/svg+xml</dc:format><dc:type
         rdf:resource="http://purl.org/dc/dcmitype/StillImage" /><dc:title></dc:title></cc:Work></rdf:RDF></metadata><defs
   id="defs71" />
<g
   transform="translate(0,-0.07000732)"
   id="g6">
	<g
   id="g4">
		<path
   id="path2"
   d="m 184.034,328.032 h -32 v -32 c 0,-4.418 -3.582,-8 -8,-8 h -32 c -4.418,0 -8,3.582 -8,8 v 32 h -32 c -4.418,0 -8,3.582 -8,8 v 32 c 0,4.418 3.582,8 8,8 h 32 v 32 c 0,4.418 3.582,8 8,8 h 32 c 4.418,0 8,-3.582 8,-8 v -32 h 32 c 4.418,0 8,-3.582 8,-8 v -32 c 0,-4.418 -3.582,-8 -8,-8 z m -8,32 h -32 c -4.418,0 -8,3.582 -8,8 v 32 h -16 v -32 c 0,-4.418 -3.582,-8 -8,-8 h -32 v -16 h 32 c 4.418,0 8,-3.582 8,-8 v -32 h 16 v 32 c 0,4.418 3.582,8 8,8 h 32 z" />
	</g>
</g>
<g
   transform="translate(0,-0.07000732)"
   id="g12">
	<g
   id="g10">
		<path
   id="path8"
   d="m 479.234,337.416 c -6.136,-55.128 -57.912,-106.704 -113.088,-112.584 -4.686,-0.517 -9.397,-0.784 -14.112,-0.8 h -88 v -32 h -16 v -16 c 0,-17.673 -14.327,-32 -32,-32 h -40 c -8.837,0 -16,-7.163 -16,-16 0,-8.837 7.163,-16 16,-16 h 128 c 17.673,0 32,-14.327 32,-32 0,-17.673 -14.327,-32 -32,-32 h -40 c -8.837,0 -16,-7.163 -16,-16 v -32 h -16 v 32 c 0,17.673 14.327,32 32,32 h 40 c 8.837,0 16,7.163 16,16 0,8.837 -7.163,16 -16,16 h -128 c -17.673,0 -32,14.327 -32,32 0,17.673 14.327,32 32,32 h 40 c 8.837,0 16,7.163 16,16 v 16 h -16 v 32 h -88 c -4.72,0.011 -9.437,0.278 -14.128,0.8 -55.2,5.92 -106.944,57.496 -113.064,112.624 -8.037,70.234 42.383,133.686 112.618,141.723 28.6,3.273 57.468,-3.191 81.942,-18.346 10.537,-6.898 22.581,-11.154 35.112,-12.408 6.19,-0.489 12.407,-0.511 18.6,-0.064 12.729,1.231 24.967,5.536 35.664,12.544 60.135,37.164 139.012,18.543 176.176,-41.593 15.122,-24.469 21.562,-53.319 18.28,-81.896 z m -247.2,-129.384 h 16 v 16 h -16 z m 203.48,218.672 c -36.169,40.456 -96.148,49.138 -142.304,20.6 -12.889,-8.393 -27.634,-13.509 -42.952,-14.904 -3.376,-0.245 -6.784,-0.368 -10.224,-0.368 -3.64,0 -7.2,0.152 -10.784,0.432 -15.085,1.445 -29.597,6.511 -42.304,14.768 C 134.344,479.777 65.319,463.519 32.773,410.917 19.524,389.503 13.878,364.249 16.746,339.232 c 5.264,-47.376 51.456,-93.392 98.88,-98.488 4.12,-0.461 8.262,-0.698 12.408,-0.712 h 224 c 4.145,0.003 8.287,0.224 12.408,0.664 47.416,5.096 93.6,51.112 98.88,98.488 3.772,31.817 -6.363,63.715 -27.808,87.52 z" />
	</g>
</g>
<g
   transform="translate(0,-0.07000732)"
   id="g18">
	<g
   id="g16">
		<path
   id="path14"
   d="m 352.034,272.032 c -17.673,0 -32,14.327 -32,32 0,17.673 14.327,32 32,32 17.673,0 32,-14.327 32,-32 0,-17.673 -14.327,-32 -32,-32 z m 0,48 c -8.837,0 -16,-7.163 -16,-16 0,-8.837 7.163,-16 16,-16 8.837,0 16,7.163 16,16 0,8.837 -7.164,16 -16,16 z" />
	</g>
</g>
<g
   transform="translate(0,-0.07000732)"
   id="g24">
	<g
   id="g22">
		<path
   id="path20"
   d="m 352.034,368.032 c -17.673,0 -32,14.327 -32,32 0,17.673 14.327,32 32,32 17.673,0 32,-14.327 32,-32 0,-17.673 -14.327,-32 -32,-32 z m 0,48 c -8.837,0 -16,-7.163 -16,-16 0,-8.837 7.163,-16 16,-16 8.837,0 16,7.163 16,16 0,8.837 -7.164,16 -16,16 z" />
	</g>
</g>
<g
   transform="translate(0,-0.07000732)"
   id="g30">
	<g
   id="g28">
		<path
   id="path26"
   d="m 296.034,320.032 c -17.673,0 -32,14.327 -32,32 0,17.673 14.327,32 32,32 17.673,0 32,-14.327 32,-32 0,-17.673 -14.327,-32 -32,-32 z m 0,48 c -8.837,0 -16,-7.163 -16,-16 0,-8.837 7.163,-16 16,-16 8.837,0 16,7.163 16,16 0,8.837 -7.164,16 -16,16 z" />
	</g>
</g>
<g
   transform="translate(0,-0.07000732)"
   id="g36">
	<g
   id="g34">
		<path
   id="path32"
   d="m 408.034,320.032 c -17.673,0 -32,14.327 -32,32 0,17.673 14.327,32 32,32 17.673,0 32,-14.327 32,-32 0,-17.673 -14.327,-32 -32,-32 z m 0,48 c -8.837,0 -16,-7.163 -16,-16 0,-8.837 7.163,-16 16,-16 8.837,0 16,7.163 16,16 0,8.837 -7.164,16 -16,16 z" />
	</g>
</g>
<g
   transform="translate(0,-0.07000732)"
   id="g38">
</g>
<g
   transform="translate(0,-0.07000732)"
   id="g40">
</g>
<g
   transform="translate(0,-0.07000732)"
   id="g42">
</g>
<g
   transform="translate(0,-0.07000732)"
   id="g44">
</g>
<g
   transform="translate(0,-0.07000732)"
   id="g46">
</g>
<g
   transform="translate(0,-0.07000732)"
   id="g48">
</g>
<g
   transform="translate(0,-0.07000732)"
   id="g50">
</g>
<g
   transform="translate(0,-0.07000732)"
   id="g52">
</g>
<g
   transform="translate(0,-0.07000732)"
   id="g54">
</g>
<g
   transform="translate(0,-0.07000732)"
   id="g56">
</g>
<g
   transform="translate(0,-0.07000732)"
   id="g58">
</g>
<g
   transform="translate(0,-0.07000732)"
   id="g60">
</g>
<g
   transform="translate(0,-0.07000732)"
   id="g62">
</g>
<g
   transform="translate(0,-0.07000732)"
   id="g64">
</g>
<g
   transform="translate(0,-0.07000732)"
   id="g66">
</g>
</svg>