<?xml version="1.0" encoding="UTF-8" standalone="no"?>
<svg
   xmlns:dc="http://purl.org/dc/elements/1.1/"
   xmlns:cc="http://creativecommons.org/ns#"
   xmlns:rdf="http://www.w3.org/1999/02/22-rdf-syntax-ns#"
   xmlns:svg="http://www.w3.org/2000/svg"
   xmlns="http://www.w3.org/2000/svg"
   height="276"
   width="276"
   xml:space="preserve"
   viewBox="0 0 276 276"
   y="0px"
   x="0px"
   id="Capa_1"
   version="1.1"><metadata
   id="metadata43"><rdf:RDF><cc:Work
       rdf:about=""><dc:format>image/svg+xml</dc:format><dc:type
         rdf:resource="http://purl.org/dc/dcmitype/StillImage" /><dc:title></dc:title></cc:Work></rdf:RDF></metadata><defs
   id="defs41" />
<g
   transform="translate(0,0.16400586)"
   id="g6">
	<path
   id="path2"
   d="m 191.344,20.922 -95.155,95.155 c -0.756,0.756 -1.297,1.699 -1.565,2.734 l -8.167,31.454 c -0.534,2.059 0.061,4.246 1.565,5.751 1.14,1.139 2.671,1.757 4.242,1.757 0.503,0 1.009,-0.063 1.508,-0.192 l 31.454,-8.168 c 1.035,-0.269 1.979,-0.81 2.734,-1.565 l 95.153,-95.153 c 0.002,-0.002 0.004,-0.003 0.005,-0.004 0.001,-0.001 0.003,-0.004 0.004,-0.005 L 242.278,33.53 c 2.344,-2.343 2.344,-6.142 0.001,-8.484 L 218.994,1.758 C 217.868,0.632 216.343,0 214.751,0 c -1.591,0 -3.117,0.632 -4.242,1.758 l -19.155,19.155 c -0.002,0.002 -0.004,0.003 -0.005,0.004 -10e-4,10e-4 -0.003,0.004 -0.005,0.005 z m -70.713,117.286 -19.993,5.192 5.191,-19.993 89.762,-89.762 14.801,14.802 z M 214.751,14.485 229.552,29.287 218.877,39.962 204.076,25.16 Z" />
	<path
   id="path4"
   d="m 238.037,65.022 c -3.313,0 -6,2.687 -6,6 V 263.835 H 43.799 V 34.417 h 111.063 c 3.313,0 6,-2.687 6,-6 0,-3.313 -2.687,-6 -6,-6 H 37.799 c -3.313,0 -6,2.687 -6,6 v 241.419 c 0,3.313 2.687,6 6,6 h 200.238 c 3.313,0 6,-2.687 6,-6 V 71.022 c 0,-3.313 -2.686,-6 -6,-6 z" />
</g>
<g
   transform="translate(0,0.16400586)"
   id="g8">
</g>
<g
   transform="translate(0,0.16400586)"
   id="g10">
</g>
<g
   transform="translate(0,0.16400586)"
   id="g12">
</g>
<g
   transform="translate(0,0.16400586)"
   id="g14">
</g>
<g
   transform="translate(0,0.16400586)"
   id="g16">
</g>
<g
   transform="translate(0,0.16400586)"
   id="g18">
</g>
<g
   transform="translate(0,0.16400586)"
   id="g20">
</g>
<g
   transform="translate(0,0.16400586)"
   id="g22">
</g>
<g
   transform="translate(0,0.16400586)"
   id="g24">
</g>
<g
   transform="translate(0,0.16400586)"
   id="g26">
</g>
<g
   transform="translate(0,0.16400586)"
   id="g28">
</g>
<g
   transform="translate(0,0.16400586)"
   id="g30">
</g>
<g
   transform="translate(0,0.16400586)"
   id="g32">
</g>
<g
   transform="translate(0,0.16400586)"
   id="g34">
</g>
<g
   transform="translate(0,0.16400586)"
   id="g36">
</g>
</svg>