<?xml version="1.0" encoding="UTF-8" standalone="no"?>
<svg
   xmlns:dc="http://purl.org/dc/elements/1.1/"
   xmlns:cc="http://creativecommons.org/ns#"
   xmlns:rdf="http://www.w3.org/1999/02/22-rdf-syntax-ns#"
   xmlns:svg="http://www.w3.org/2000/svg"
   xmlns="http://www.w3.org/2000/svg"
   height="512"
   width="512"
   xml:space="preserve"
   viewBox="0 0 512 512"
   y="0px"
   x="0px"
   id="Capa_1"
   version="1.1"><metadata
   id="metadata139"><rdf:RDF><cc:Work
       rdf:about=""><dc:format>image/svg+xml</dc:format><dc:type
         rdf:resource="http://purl.org/dc/dcmitype/StillImage" /><dc:title></dc:title></cc:Work></rdf:RDF></metadata><defs
   id="defs137" />
<g
   transform="translate(0,0.00501468)"
   id="g6">
	<g
   id="g4">
		<path
   id="path2"
   d="m 256,68.316 c -108.22,0 -196.267,88.047 -196.267,196.267 0,108.22 88.047,196.266 196.267,196.266 108.22,0 196.267,-88.047 196.267,-196.267 C 452.267,156.362 364.22,68.316 256,68.316 Z m 0,375.466 c -98.807,0 -179.2,-80.384 -179.2,-179.2 0,-98.816 80.393,-179.2 179.2,-179.2 98.816,0 179.2,80.384 179.2,179.2 0,98.816 -80.384,179.2 -179.2,179.2 z" />
	</g>
</g>
<g
   transform="translate(0,0.00501468)"
   id="g12">
	<g
   id="g10">
		<path
   id="path8"
   d="m 338.364,86.449 c -0.785,-0.358 -1.613,-0.606 -2.466,-0.717 l -1.971,-0.265 c -3.038,-0.435 -6.05,0.836 -7.902,3.268 -1.86,2.432 -2.278,5.658 -1.101,8.482 5.862,14.012 12.843,42.334 3.917,48.836 l -19.78,7.91 c -14.976,5.99 -25.472,19.746 -27.392,35.951 l -0.128,0.981 c -0.469,3.396 -3.243,4.318 -4.412,4.557 -2.116,0.427 -4.941,-0.085 -6.562,-2.799 l -8.474,-14.123 c -3.115,-5.197 -8.866,-8.286 -14.839,-7.919 -6.016,0.307 -11.332,3.883 -13.892,9.344 -7.62,16.273 -17.186,39.757 -19.507,59.204 -0.717,6.033 0.358,12.126 3.106,17.63 l 9.839,19.678 c 3.49,6.963 8.841,12.868 15.488,17.067 6.127,3.866 17.485,11.665 24.721,20.403 8.235,9.958 19.328,16.393 31.241,18.313 -0.478,15.983 0.572,42.257 11.452,53.862 3.806,4.053 8.576,6.281 13.858,6.46 0.956,0.128 2.637,0.299 4.813,0.299 6.332,0 16.905,-1.434 26.573,-9.421 13.466,-11.127 20.369,-30.703 20.523,-58.189 l 12.22,-55.006 4.642,7.731 c 3.772,6.289 10.078,10.709 17.28,12.126 7.202,1.417 14.711,-0.307 20.591,-4.71 l 18.654,-13.995 c 2.15,-1.613 3.413,-4.139 3.413,-6.827 C 452.267,188.405 407.552,118.483 338.364,86.449 Z m 81.595,185.301 c -2.048,1.527 -4.565,2.099 -7.066,1.613 -2.509,-0.486 -4.617,-1.971 -5.931,-4.164 l -8.849,-14.754 c -2.918,-4.873 -8.414,-7.433 -14.046,-6.519 -5.606,0.913 -10.027,5.086 -11.264,10.633 l -14.199,63.906 c -0.137,0.606 -0.205,1.229 -0.205,1.852 0,22.161 -4.881,37.999 -14.114,45.807 -8.439,7.134 -18.091,5.589 -18.398,5.547 -1.101,-0.205 -1.937,0.683 -3.729,-1.229 -5.316,-5.675 -8.004,-25.481 -6.536,-48.179 0.171,-2.697 -0.794,-5.385 -2.645,-7.356 -1.86,-1.988 -4.506,-3.123 -7.236,-3.123 -9.566,0 -18.893,-4.634 -25.591,-12.715 -8.303,-10.044 -20.224,-18.577 -28.757,-23.962 -4.011,-2.534 -7.236,-6.084 -9.327,-10.266 l -9.839,-19.678 c -1.254,-2.509 -1.749,-5.274 -1.425,-7.987 2.091,-17.459 11.529,-39.953 17.399,-52.642 l 7.74,12.894 c 5.12,8.533 14.771,12.723 24.619,10.735 9.549,-1.954 16.58,-9.387 17.894,-18.953 l 0.179,-1.348 c 1.169,-9.941 7.595,-18.389 16.768,-22.059 l 20.574,-8.226 c 0.427,-0.171 0.853,-0.384 1.254,-0.623 16.213,-9.847 14.114,-33.417 9.856,-50.671 52.847,31.292 86.588,88.175 88.064,150.076 z" />
	</g>
</g>
<g
   transform="translate(0,0.00501468)"
   id="g18">
	<g
   id="g16">
		<path
   id="path14"
   d="m 215.765,382.948 -5.171,-5.163 C 204.322,371.504 197,366.555 188.843,363.056 l -26.317,-11.281 c -10.607,-4.548 -17.459,-14.942 -17.459,-26.487 v -12.843 c 0,-7.859 -3.857,-15.215 -10.317,-19.695 -6.46,-4.471 -14.711,-5.487 -22.067,-2.739 l -40.977,15.36 c -4.113,1.545 -6.391,5.956 -5.248,10.206 19.208,71.535 78.524,127.078 151.117,141.491 0.563,0.111 1.126,0.162 1.673,0.162 3.746,0 7.142,-2.466 8.209,-6.187 l 3.123,-10.94 c 5.802,-20.316 0.127,-42.221 -14.815,-57.155 z m -1.595,52.463 -0.922,3.209 C 152.977,423.815 103.851,377.794 85.12,318.573 l 33.553,-12.578 c 2.159,-0.819 4.471,-0.529 6.357,0.785 1.886,1.306 2.97,3.371 2.97,5.666 v 12.843 c 0,18.381 10.914,34.935 27.802,42.172 l 26.317,11.281 c 6.161,2.645 11.682,6.383 16.41,11.11 l 5.171,5.163 c 10.555,10.555 14.574,26.034 10.47,40.396 z" />
	</g>
</g>
<g
   transform="translate(0,0.00501468)"
   id="g24">
	<g
   id="g22">
		<path
   id="path20"
   d="m 166.545,97.918 c -2.671,-3.294 -7.356,-4.122 -11,-1.946 -56.354,33.647 -92.066,92.749 -95.522,158.089 -0.154,2.893 1.169,5.666 3.516,7.364 1.476,1.075 3.226,1.621 5.001,1.621 1.05,0 2.099,-0.196 3.089,-0.572 l 52.932,-20.89 c 12.681,-5.077 19.226,-19.191 14.908,-32.145 -1.05,-3.166 -0.239,-6.596 2.116,-8.96 l 24.593,-24.593 c 8.397,-8.388 13.022,-19.55 13.022,-31.428 v -11.102 c 0,-12.799 -4.497,-25.386 -12.655,-35.438 z m -4.412,46.532 c 0,7.322 -2.85,14.191 -8.03,19.362 l -24.593,24.593 c -6.955,6.963 -9.344,17.084 -6.229,26.419 1.468,4.395 -0.759,9.182 -5.052,10.897 l -39.953,15.838 c 6.63,-51.618 35.422,-97.809 79.172,-126.643 3.055,5.675 4.685,12.023 4.685,18.432 z" />
	</g>
</g>
<g
   transform="translate(0,0.00501468)"
   id="g30">
	<g
   id="g28">
		<path
   id="path26"
   d="m 256,0.049 c -8.823,0 -17.724,0.452 -26.453,1.348 -4.685,0.478 -8.098,4.676 -7.62,9.361 0.452,4.395 4.164,7.663 8.482,7.663 0.29,0 0.589,-0.017 0.879,-0.051 8.149,-0.828 16.461,-1.254 24.713,-1.254 4.71,0 8.533,-3.823 8.533,-8.533 0,-4.71 -3.824,-8.534 -8.534,-8.534 z" />
	</g>
</g>
<g
   transform="translate(0,0.00501468)"
   id="g36">
	<g
   id="g34">
		<path
   id="path32"
   d="m 20.429,296.207 c -2.227,-13.176 -3.362,-26.684 -3.362,-40.158 0,-2.85 0.051,-5.692 0.154,-8.533 0.162,-4.71 -3.524,-8.653 -8.235,-8.823 -4.668,-0.247 -8.653,3.524 -8.823,8.235 C 0.051,249.956 0,252.994 0,256.049 c 0,14.421 1.212,28.894 3.593,43.008 0.708,4.164 4.318,7.108 8.405,7.108 0.478,0 0.956,-0.034 1.442,-0.119 4.642,-0.785 7.774,-5.189 6.989,-9.839 z" />
	</g>
</g>
<g
   transform="translate(0,0.00501468)"
   id="g42">
	<g
   id="g40">
		<path
   id="path38"
   d="m 55.826,386.558 c -8.91,-13.637 -16.436,-28.22 -22.367,-43.35 -1.724,-4.386 -6.673,-6.554 -11.059,-4.83 -4.386,1.715 -6.554,6.665 -4.83,11.059 6.357,16.213 14.421,31.838 23.962,46.447 1.638,2.509 4.369,3.866 7.151,3.866 1.604,0 3.226,-0.452 4.668,-1.382 3.942,-2.577 5.052,-7.868 2.475,-11.81 z" />
	</g>
</g>
<g
   transform="translate(0,0.00501468)"
   id="g48">
	<g
   id="g46">
		<path
   id="path44"
   d="m 36.215,141.89 c -4.25,-2.022 -9.344,-0.222 -11.375,4.028 -7.518,15.744 -13.423,32.316 -17.553,49.246 -1.117,4.582 1.682,9.199 6.264,10.316 0.683,0.162 1.365,0.239 2.031,0.239 3.84,0 7.33,-2.62 8.286,-6.511 3.857,-15.795 9.361,-31.258 16.375,-45.943 2.031,-4.258 0.23,-9.344 -4.028,-11.375 z" />
	</g>
</g>
<g
   transform="translate(0,0.00501468)"
   id="g54">
	<g
   id="g52">
		<path
   id="path50"
   d="m 99.772,63.937 c -3.098,-3.55 -8.482,-3.925 -12.041,-0.819 -13.133,11.469 -25.139,24.32 -35.678,38.187 -2.85,3.746 -2.125,9.105 1.63,11.955 1.544,1.178 3.354,1.741 5.154,1.741 2.577,0 5.12,-1.169 6.801,-3.371 9.839,-12.953 21.052,-24.951 33.315,-35.652 3.55,-3.098 3.917,-8.491 0.819,-12.041 z" />
	</g>
</g>
<g
   transform="translate(0,0.00501468)"
   id="g60">
	<g
   id="g58">
		<path
   id="path56"
   d="m 214.366,491.381 c -16.034,-2.825 -31.821,-7.305 -46.908,-13.329 -4.386,-1.749 -9.344,0.375 -11.093,4.762 -1.749,4.369 0.384,9.335 4.762,11.085 16.171,6.46 33.092,11.264 50.278,14.285 0.495,0.085 0.99,0.128 1.485,0.128 4.07,0 7.672,-2.918 8.405,-7.048 0.811,-4.643 -2.287,-9.064 -6.929,-9.883 z" />
	</g>
</g>
<g
   transform="translate(0,0.00501468)"
   id="g66">
	<g
   id="g64">
		<path
   id="path62"
   d="m 321.681,494.863 c -1.092,-4.591 -5.709,-7.407 -10.274,-6.332 -15.77,3.746 -32.043,5.888 -48.375,6.357 -4.71,0.128 -8.422,4.062 -8.286,8.772 0.137,4.625 3.925,8.286 8.525,8.286 0.077,0 0.162,0 0.256,-0.008 17.493,-0.503 34.927,-2.79 51.823,-6.801 4.582,-1.092 7.415,-5.692 6.331,-10.274 z" />
	</g>
</g>
<g
   transform="translate(0,0.00501468)"
   id="g72">
	<g
   id="g70">
		<path
   id="path68"
   d="m 189.039,17.593 c -1.425,-4.489 -6.229,-6.963 -10.718,-5.547 -16.606,5.282 -32.734,12.314 -47.932,20.89 -4.105,2.321 -5.547,7.526 -3.234,11.631 1.57,2.773 4.463,4.335 7.441,4.335 1.417,0 2.859,-0.358 4.181,-1.101 14.174,-8.004 29.227,-14.566 44.715,-19.49 4.489,-1.425 6.972,-6.229 5.547,-10.718 z" />
	</g>
</g>
<g
   transform="translate(0,0.00501468)"
   id="g78">
	<g
   id="g76">
		<path
   id="path74"
   d="m 124.245,455.396 c -13.551,-8.969 -26.24,-19.379 -37.726,-30.933 -3.319,-3.337 -8.73,-3.362 -12.066,-0.034 -3.337,3.328 -3.354,8.73 -0.034,12.075 12.305,12.373 25.899,23.526 40.405,33.135 1.451,0.956 3.089,1.417 4.702,1.417 2.765,0 5.478,-1.34 7.117,-3.831 2.603,-3.927 1.528,-9.226 -2.398,-11.829 z" />
	</g>
</g>
<g
   transform="translate(0,0.00501468)"
   id="g84">
	<g
   id="g82">
		<path
   id="path80"
   d="m 391.305,463.452 c -2.449,-4.028 -7.697,-5.325 -11.725,-2.876 -7.014,4.25 -14.336,8.175 -21.76,11.682 -4.258,2.014 -6.093,7.091 -4.079,11.358 1.459,3.089 4.523,4.898 7.723,4.898 1.22,0 2.458,-0.265 3.644,-0.819 7.962,-3.755 15.804,-7.962 23.322,-12.518 4.027,-2.45 5.315,-7.698 2.875,-11.725 z" />
	</g>
</g>
<g
   transform="translate(0,0.00501468)"
   id="g90">
	<g
   id="g88">
		<path
   id="path86"
   d="m 510.2,378.809 c -2.901,-3.729 -8.269,-4.395 -11.972,-1.502 l -76.8,59.733 c -2.074,1.621 -3.294,4.105 -3.294,6.741 v 25.6 c 0,4.71 3.823,8.533 8.533,8.533 4.71,0 8.533,-3.823 8.533,-8.533 v -21.427 l 73.498,-57.173 c 3.72,-2.892 4.394,-8.251 1.502,-11.972 z" />
	</g>
</g>
<g
   transform="translate(0,0.00501468)"
   id="g96">
	<g
   id="g94">
		<path
   id="path92"
   d="m 429.372,435.684 -25.6,-8.533 c -4.489,-1.51 -9.31,0.93 -10.795,5.393 -1.493,4.471 0.922,9.301 5.393,10.795 l 25.6,8.533 c 0.896,0.299 1.809,0.444 2.697,0.444 3.575,0 6.903,-2.261 8.098,-5.837 1.493,-4.472 -0.922,-9.302 -5.393,-10.795 z" />
	</g>
</g>
<g
   transform="translate(0,0.00501468)"
   id="g102">
	<g
   id="g100">
		<path
   id="path98"
   d="m 494.319,449.133 -17.067,-42.667 c -0.691,-1.732 -1.937,-3.191 -3.533,-4.147 l -42.667,-25.6 c -4.045,-2.423 -9.284,-1.118 -11.708,2.927 -2.424,4.045 -1.118,9.284 2.927,11.708 l 40.201,24.124 16,40.004 c 1.34,3.337 4.54,5.367 7.927,5.367 1.058,0 2.133,-0.196 3.166,-0.623 4.379,-1.749 6.503,-6.716 4.754,-11.093 z" />
	</g>
</g>
<g
   transform="translate(0,0.00501468)"
   id="g104">
</g>
<g
   transform="translate(0,0.00501468)"
   id="g106">
</g>
<g
   transform="translate(0,0.00501468)"
   id="g108">
</g>
<g
   transform="translate(0,0.00501468)"
   id="g110">
</g>
<g
   transform="translate(0,0.00501468)"
   id="g112">
</g>
<g
   transform="translate(0,0.00501468)"
   id="g114">
</g>
<g
   transform="translate(0,0.00501468)"
   id="g116">
</g>
<g
   transform="translate(0,0.00501468)"
   id="g118">
</g>
<g
   transform="translate(0,0.00501468)"
   id="g120">
</g>
<g
   transform="translate(0,0.00501468)"
   id="g122">
</g>
<g
   transform="translate(0,0.00501468)"
   id="g124">
</g>
<g
   transform="translate(0,0.00501468)"
   id="g126">
</g>
<g
   transform="translate(0,0.00501468)"
   id="g128">
</g>
<g
   transform="translate(0,0.00501468)"
   id="g130">
</g>
<g
   transform="translate(0,0.00501468)"
   id="g132">
</g>
</svg>