<?xml version="1.0" encoding="UTF-8" standalone="no"?>
<svg
   xmlns:dc="http://purl.org/dc/elements/1.1/"
   xmlns:cc="http://creativecommons.org/ns#"
   xmlns:rdf="http://www.w3.org/1999/02/22-rdf-syntax-ns#"
   xmlns:svg="http://www.w3.org/2000/svg"
   xmlns="http://www.w3.org/2000/svg"
   height="335"
   width="335"
   xml:space="preserve"
   viewBox="0 0 335.00001 335.00001"
   y="0px"
   x="0px"
   id="Capa_1"
   version="1.1"><metadata
   id="metadata41"><rdf:RDF><cc:Work
       rdf:about=""><dc:format>image/svg+xml</dc:format><dc:type
         rdf:resource="http://purl.org/dc/dcmitype/StillImage" /><dc:title></dc:title></cc:Work></rdf:RDF></metadata><defs
   id="defs39" />
<g
   transform="translate(0,0.37702666)"
   id="g4">
	<path
   id="path2"
   d="m 175.329,287.017 c -0.007,0 0,0 0,0 -38.053,0 -79.481,-1.202 -123.125,-3.554 C 26.42,282.049 6.419,262.171 3.572,235.114 c -4.762,-45.2 -4.762,-90.83 0,-135.625 2.841,-26.832 22.815,-46.71 48.574,-48.33 75.271,-4.737 152.721,-4.737 230.312,0 26.061,1.581 45.586,20.99 48.6,48.304 4.749,43.246 4.756,88.87 0.006,135.632 -2.744,27.038 -22.25,46.472 -48.535,48.356 -33.079,2.364 -69.147,3.566 -107.2,3.566 z M 166.428,60.452 c -37.931,0 -76.113,1.195 -113.485,3.541 -19.685,1.234 -34.39,16.048 -36.594,36.851 -4.666,43.895 -4.666,88.613 0,132.926 2.204,20.971 16.89,35.778 36.543,36.858 43.413,2.339 84.609,3.535 122.425,3.535 37.751,0 73.51,-1.189 106.287,-3.528 19.833,-1.427 34.57,-16.228 36.659,-36.839 4.666,-45.862 4.666,-90.58 0.006,-132.926 -2.294,-20.868 -17.005,-35.688 -36.594,-36.877 -38.53,-2.352 -77.31,-3.541 -115.247,-3.541 z m -31.852,61.331 v 88.208 l 84.706,-43.805 z" />
</g>
<g
   transform="translate(0,0.37702666)"
   id="g6">
</g>
<g
   transform="translate(0,0.37702666)"
   id="g8">
</g>
<g
   transform="translate(0,0.37702666)"
   id="g10">
</g>
<g
   transform="translate(0,0.37702666)"
   id="g12">
</g>
<g
   transform="translate(0,0.37702666)"
   id="g14">
</g>
<g
   transform="translate(0,0.37702666)"
   id="g16">
</g>
<g
   transform="translate(0,0.37702666)"
   id="g18">
</g>
<g
   transform="translate(0,0.37702666)"
   id="g20">
</g>
<g
   transform="translate(0,0.37702666)"
   id="g22">
</g>
<g
   transform="translate(0,0.37702666)"
   id="g24">
</g>
<g
   transform="translate(0,0.37702666)"
   id="g26">
</g>
<g
   transform="translate(0,0.37702666)"
   id="g28">
</g>
<g
   transform="translate(0,0.37702666)"
   id="g30">
</g>
<g
   transform="translate(0,0.37702666)"
   id="g32">
</g>
<g
   transform="translate(0,0.37702666)"
   id="g34">
</g>
</svg>